<!DOCTYPE svg PUBLIC "-//W3C//DTD SVG 1.1//EN" "http://www.w3.org/Graphics/SVG/1.1/DTD/svg11.dtd">
<!-- Uploaded to: SVG Repo, www.svgrepo.com, Transformed by: SVG Repo Mixer Tools -->
<svg width="800px" height="800px" viewBox="-2.4 -2.4 28.80 28.80" version="1.1" xmlns="http://www.w3.org/2000/svg" xmlns:xlink="http://www.w3.org/1999/xlink" fill="#28293E" stroke="#28293E">
<g id="SVGRepo_bgCarrier" stroke-width="0"/>
<g id="SVGRepo_tracerCarrier" stroke-linecap="round" stroke-linejoin="round"/>
<g id="SVGRepo_iconCarrier"> <!-- Uploaded to: SVG Repo, www.svgrepo.com, Transformed by: SVG Repo Mixer Tools --> <title>ic_fluent_shapes_24_filled</title> <desc>Created with Sketch.</desc> <g id="ðŸ”-System-Icons" stroke="none" stroke-width="1" fill="none" fill-rule="evenodd"> <g id="ic_fluent_shapes_24_filled" fill="#28293E" fill-rule="nonzero"> <path d="M18.75,9 C20.4830069,9 21.8992442,10.3564785 21.9948551,12.0655785 L22,12.25 L22,18.75 C22,20.4830069 20.6435215,21.8992442 18.9344215,21.9948551 L18.75,22 L12.25,22 C10.5169931,22 9.10075577,20.6435215 9.00514488,18.9344215 L9,18.75 L9,12.25 C9,10.5169931 10.3564785,9.10075577 12.0655785,9.00514488 L12.25,9 L18.75,9 Z M8.75,2 C12.2244,2 15.0857,4.62504 15.4588,8 L12.25,8 C9.90279,8 8,9.90279 8,12.25 L8,15.4588 C4.62504,15.0857 2,12.2244 2,8.75 C2,5.02208 5.02208,2 8.75,2 Z" id="ðŸŽ¨-Color"> </path> </g> </g> </g>
</svg>